<svg width="109" height="109" viewBox="0 0 109 109" fill="none" xmlns="http://www.w3.org/2000/svg">
<path d="M54.28 105.78C82.7227 105.78 105.78 82.7227 105.78 54.28C105.78 25.8374 82.7227 2.78003 54.28 2.78003C25.8374 2.78003 2.78003 25.8374 2.78003 54.28C2.78003 82.7227 25.8374 105.78 54.28 105.78Z" fill="black" stroke="#19FF00" stroke-width="2" stroke-miterlimit="10"/>
<path d="M54.28 85.31L27.61 69.23V39.58L54.28 55.9V85.31Z" stroke="white" stroke-width="2.78" stroke-linecap="round" stroke-linejoin="round"/>
<path d="M54.28 85.31L80.95 69.23V39.58L54.28 55.9V85.31Z" stroke="white" stroke-width="2.78" stroke-linecap="round" stroke-linejoin="round"/>
<path d="M27.61 39.58L54.28 55.9L80.95 39.58L54.28 23.26L27.61 39.58Z" stroke="white" stroke-width="2.78" stroke-linecap="round" stroke-linejoin="round"/>
<path d="M74.4501 67.5501L61.9901 75.5201C60.1601 76.6901 58.6801 76.1601 58.6801 74.3301V61.8701C58.6801 60.0401 60.1601 57.6101 61.9901 56.4401L74.4501 48.4701C76.2801 47.3001 77.7601 47.8301 77.7601 49.6601V62.1201C77.7601 63.9501 76.2801 66.3801 74.4501 67.5501Z" stroke="white" stroke-width="2.78" stroke-linecap="round" stroke-linejoin="round"/>
<path d="M58.6801 71.8101L65.4101 59.7901L70.2301 63.9801L74.0601 58.5601L77.7501 60.4901" stroke="white" stroke-width="2.78" stroke-linecap="round" stroke-linejoin="round"/>
<path d="M73.2397 55.9178C74.1156 54.7179 74.3086 53.3677 73.6708 52.902C73.0329 52.4363 71.8057 53.0316 70.9297 54.2315C70.0537 55.4314 69.8607 56.7817 70.4986 57.2473C71.1365 57.713 72.3637 57.1178 73.2397 55.9178Z" fill="white"/>
<path d="M34.72 67.5501L47.18 75.5201C49.01 76.6901 50.49 76.1601 50.49 74.3301V61.8701C50.49 60.0401 49.01 57.6101 47.18 56.4401L34.72 48.4701C32.89 47.3001 31.41 47.8301 31.41 49.6601V62.1201C31.41 63.9501 32.89 66.3801 34.72 67.5501Z" stroke="white" stroke-width="2.78" stroke-linecap="round" stroke-linejoin="round"/>
<path d="M50.48 71.8101L43.75 59.7901L38.93 63.9801L35.11 58.5601L31.41 60.4901" stroke="white" stroke-width="2.78" stroke-linecap="round" stroke-linejoin="round"/>
<path d="M38.6572 57.2446C39.2951 56.7789 39.1021 55.4287 38.2261 54.2288C37.3502 53.0289 36.1229 52.4336 35.4851 52.8993C34.8472 53.3649 35.0402 54.7152 35.9162 55.9151C36.7921 57.115 38.0193 57.7103 38.6572 57.2446Z" fill="white"/>
<path d="M50.66 48.0299L40.12 41.3899C38.57 40.4199 38.74 38.7999 40.49 37.7899L52.43 30.8699C54.18 29.8499 56.85 29.8199 58.4 30.7999L68.94 37.4399C70.49 38.4099 70.32 40.0299 68.57 41.0399L56.63 47.9599C54.88 48.9799 52.21 49.0099 50.66 48.0299Z" stroke="white" stroke-width="2.78" stroke-linecap="round" stroke-linejoin="round"/>
<path d="M42.9199 36.3799L56.0099 35.6799L53.1099 42.2899L59.1999 42.6799L58.1999 47.0399" stroke="white" stroke-width="2.78" stroke-linecap="round" stroke-linejoin="round"/>
<path d="M62.1952 40.5011C63.5828 40.3931 64.6555 39.636 64.5913 38.8101C64.527 37.9842 63.35 37.4022 61.9625 37.5102C60.5749 37.6181 59.5022 38.3752 59.5665 39.2012C59.6307 40.0271 60.8077 40.6091 62.1952 40.5011Z" fill="white"/>
</svg>
