<svg width="16" height="16" viewBox="0 0 16 16" fill="none" xmlns="http://www.w3.org/2000/svg">
<circle cx="8" cy="8" r="8" fill="#646464"/>
<g clip-path="url(#clip0_7231_20719)">
<path d="M11.1137 7.79834C11.0075 7.69225 10.8788 7.63924 10.7271 7.63924H10.5454V6.548C10.5454 5.85087 10.2954 5.25229 9.79525 4.75217C9.29515 4.25203 8.69663 4.00195 7.9994 4.00195C7.3022 4.00195 6.70356 4.25203 6.20349 4.75215C5.70335 5.25229 5.45336 5.85085 5.45336 6.548V7.63924H5.27152C5.12002 7.63924 4.99117 7.69225 4.88508 7.79834C4.77898 7.90436 4.72595 8.03321 4.72595 8.18485V11.4583C4.72595 11.6098 4.779 11.7387 4.88508 11.8448C4.99117 11.9508 5.12002 12.0039 5.27152 12.0039H10.7273C10.8789 12.0039 11.0077 11.9509 11.1138 11.8448C11.2198 11.7387 11.2729 11.6098 11.2729 11.4583V8.18479C11.273 8.03327 11.2198 7.90444 11.1137 7.79834ZM9.45427 7.63924H6.54453V6.548C6.54453 6.14641 6.68664 5.8035 6.97079 5.51939C7.25498 5.23524 7.59783 5.09319 7.99946 5.09319C8.40114 5.09319 8.74391 5.23522 9.02812 5.51939C9.31219 5.80348 9.45427 6.14641 9.45427 6.548V7.63924Z" fill="white"/>
</g>
<defs>
<clipPath id="clip0_7231_20719">
<rect width="8.00195" height="8.00195" fill="white" transform="translate(3.99805 4)"/>
</clipPath>
</defs>
</svg>
