<svg width="26" height="24" viewBox="0 0 26 24" fill="none" xmlns="http://www.w3.org/2000/svg">
<path d="M22 12C22 7.02944 17.9706 3 13 3C8.02944 3 4 7.02944 4 12" stroke="#595959" stroke-width="1.5" stroke-miterlimit="10"/>
<path d="M21.4879 15C20.2523 18.4956 16.9186 21 13 21C9.08131 21 5.74759 18.4956 4.51208 15" stroke="#595959" stroke-width="1.5" stroke-miterlimit="10" stroke-linecap="round" stroke-linejoin="round"/>
<path d="M4.51562 9H21.4844" stroke="#595959" stroke-width="1.5" stroke-linecap="round" stroke-linejoin="round"/>
<path d="M16.5241 15C15.9996 18.3584 14.6197 20.7562 13 20.7562C11.3802 20.7562 10.0003 18.3584 9.47583 15" stroke="#595959" stroke-width="1.5" stroke-miterlimit="10" stroke-linecap="round"/>
<path d="M16.75 12.0004C16.75 7.16445 15.0711 3.24414 13 3.24414C10.9289 3.24414 9.25 7.16445 9.25 12.0004" stroke="#595959" stroke-width="1.5" stroke-miterlimit="10"/>
<path d="M1 12H25" stroke="#595959" stroke-width="1.5" stroke-linecap="round" stroke-linejoin="round"/>
</svg>
