<svg width="16" height="16" viewBox="0 0 16 16" fill="none" xmlns="http://www.w3.org/2000/svg">
<g clip-path="url(#clip0_1_898)">
<path d="M3.66693 7.25512C3.66691 7.17002 3.68371 7.08576 3.71634 7.00717C3.74898 6.92859 3.79681 6.85722 3.8571 6.79719C3.91739 6.73715 3.98894 6.68962 4.06764 6.65732C4.14634 6.62503 4.23065 6.60861 4.31572 6.60901L5.39134 6.61253C5.56285 6.61253 5.72733 6.68069 5.8486 6.802C5.96988 6.92332 6.03801 7.08786 6.03801 7.25942V11.3282C6.15917 11.2923 6.31458 11.254 6.48482 11.214C6.60302 11.1862 6.70836 11.1193 6.78376 11.024C6.85917 10.9288 6.90021 10.8109 6.90024 10.6895V5.64248C6.90023 5.55752 6.91696 5.47338 6.94945 5.39488C6.98195 5.31638 7.02958 5.24506 7.08964 5.18497C7.14969 5.12489 7.22099 5.07722 7.29945 5.0447C7.37792 5.01218 7.46202 4.99544 7.54696 4.99543H8.62471C8.79621 4.99546 8.96067 5.06363 9.08194 5.18494C9.20321 5.30624 9.27134 5.47077 9.27137 5.64233V10.3268C9.27137 10.3268 9.5411 10.2175 9.80402 10.1065C9.90166 10.0652 9.98497 9.99601 10.0436 9.90764C10.1022 9.81927 10.1335 9.7156 10.1336 9.60955V4.02497C10.1335 3.94002 10.1503 3.8559 10.1828 3.77742C10.2153 3.69893 10.2629 3.62762 10.3229 3.56755C10.383 3.50748 10.4543 3.45983 10.5327 3.42732C10.6112 3.39481 10.6952 3.37808 10.7802 3.37808H11.8579C12.0294 3.37808 12.1939 3.44623 12.3152 3.56754C12.4365 3.68886 12.5046 3.8534 12.5046 4.02497V8.62357C13.439 7.94617 14.386 7.13136 15.1375 6.15166C15.2465 6.00945 15.3187 5.84245 15.3475 5.66557C15.3763 5.48868 15.3609 5.30741 15.3027 5.13792C14.7942 3.65553 13.8405 2.36644 12.5718 1.4469C11.3031 0.527358 9.78151 0.0222585 8.21499 0.000664027C3.99075 -0.0561018 0.499644 3.39338 0.500059 7.61963C0.495912 8.95696 0.844826 10.2717 1.51152 11.4308C1.60347 11.5894 1.73873 11.7184 1.90142 11.8027C2.06412 11.887 2.24748 11.9231 2.42998 11.9068C2.63389 11.8888 2.88774 11.8635 3.18952 11.828C3.32087 11.8131 3.44213 11.7503 3.53022 11.6517C3.6183 11.5531 3.66705 11.4255 3.66719 11.2933V7.25512" fill="white"/>
<path d="M3.64347 13.7805C4.77952 14.6072 6.12205 15.1035 7.52254 15.2143C8.92302 15.3252 10.3269 15.0463 11.5787 14.4086C12.8306 13.7708 13.8818 12.7991 14.6158 11.6009C15.3499 10.4026 15.7383 9.02459 15.7381 7.61923C15.7381 7.4438 15.7299 7.27033 15.7182 7.09781C12.9358 11.2489 7.79841 13.1895 3.64342 13.7807" fill="white"/>
</g>
<defs>
<clipPath id="clip0_1_898">
<rect width="15.2381" height="15.2381" fill="white" transform="translate(0.5)"/>
</clipPath>
</defs>
</svg>
