<svg width="16" height="16" viewBox="0 0 16 16" fill="none" xmlns="http://www.w3.org/2000/svg">
<g clip-path="url(#clip0_2593_2205)">
<path d="M15.8293 14.2707L12.3093 8.55133C12.1087 8.21133 11.7353 8 11.3333 8C10.9313 8 10.558 8.21133 10.3627 8.54333L6.84867 14.2533C6.72934 14.43 6.66667 14.6407 6.66667 14.8633C6.66667 15.49 7.17867 16 7.80801 16H14.8587C15.488 16 16 15.49 16 14.8633C16 14.6407 15.9373 14.43 15.8293 14.2707ZM11.3333 15C10.9653 15 10.6667 14.7013 10.6667 14.3333C10.6667 13.9653 10.9653 13.6667 11.3333 13.6667C11.7013 13.6667 12 13.9653 12 14.3333C12 14.7013 11.7013 15 11.3333 15ZM12 12.3333C12 12.7013 11.702 13 11.3333 13C10.9647 13 10.6667 12.7013 10.6667 12.3333V10.3333C10.6667 9.96533 10.9647 9.66667 11.3333 9.66667C11.702 9.66667 12 9.96533 12 10.3333V12.3333Z" fill="white"/>
<path d="M10.6667 1.66667V6.75333C10.06 6.92667 9.54 7.31333 9.22667 7.84667L5.74667 13.5067C5.47333 13.9067 5.33333 14.3733 5.33333 14.8667C5.33333 15.2667 5.42667 15.64 5.6 15.9733C4.11333 15.7867 2.92667 14.6067 2 12C0.993333 9.16667 0 9.50667 0 8.66667C0 8.36 0.333333 8 1.33333 8C2.92 8 4 10 4 10V1.66667C4 1.11333 4.44667 0.666667 5 0.666667C5.55333 0.666667 6 1.11333 6 1.66667V8.5C6 8.59333 6.07333 8.66667 6.16667 8.66667C6.26 8.66667 6.33333 8.59333 6.33333 8.5V1C6.33333 0.446667 6.78 0 7.33333 0C7.88667 0 8.33333 0.446667 8.33333 1V8.5C8.33333 8.59333 8.40667 8.66667 8.5 8.66667C8.59333 8.66667 8.66667 8.59333 8.66667 8.5V1.66667C8.66667 1.11333 9.11333 0.666667 9.66667 0.666667C10.22 0.666667 10.6667 1.11333 10.6667 1.66667Z" fill="white"/>
<path d="M13 3.66675V7.31342C12.5533 6.90008 11.96 6.66675 11.3333 6.66675C11.22 6.66675 11.1133 6.67341 11 6.68675V3.66675C11 3.11341 11.4467 2.66675 12 2.66675C12.5533 2.66675 13 3.11341 13 3.66675Z" fill="white"/>
</g>
<defs>
<clipPath id="clip0_2593_2205">
<rect width="16" height="16" fill="white"/>
</clipPath>
</defs>
</svg>
