<svg width="22" height="22" viewBox="0 0 22 22" fill="none" xmlns="http://www.w3.org/2000/svg">
<g clip-path="url(#clip0_1_909)">
<path d="M15.7379 7.61894C15.7379 11.8265 12.3265 15.2379 8.11894 15.2379C3.91135 15.2379 0.5 11.8265 0.5 7.61894C0.5 3.41135 3.91135 0 8.11894 0C12.3274 0 15.7379 3.41135 15.7379 7.61894Z" fill="white"/>
<path d="M4.25886 7.87495L4.29173 7.82328L6.27372 4.72271C6.30269 4.67731 6.37079 4.68201 6.3927 4.73132C6.72382 5.47339 7.00953 6.39628 6.87568 6.97084C6.81854 7.20724 6.66199 7.52739 6.48585 7.82328C6.46316 7.86634 6.43811 7.90861 6.41149 7.94931C6.39896 7.9681 6.37783 7.97906 6.35512 7.97906H4.31678C4.26199 7.97906 4.2299 7.91957 4.25886 7.87495Z" fill="#1C1C1C"/>
<path d="M13.0933 8.45108V8.94188C13.0933 8.97005 13.076 8.99511 13.051 9.00606C12.8976 9.07181 12.3723 9.31291 12.1539 9.61663C11.5966 10.3924 11.1708 11.5016 10.2189 11.5016H6.24788C4.84046 11.5016 3.69995 10.3571 3.69995 8.945V8.89961C3.69995 8.86203 3.73048 8.83151 3.76805 8.83151H5.98175C6.02558 8.83151 6.05767 8.87221 6.05377 8.91526C6.0381 9.05929 6.06472 9.20645 6.13282 9.3403C6.26432 9.60724 6.53673 9.77397 6.83105 9.77397H7.92694V8.9184H6.84358C6.788 8.9184 6.75514 8.8542 6.78723 8.80881C6.79896 8.7908 6.81228 8.77202 6.82636 8.75089C6.92891 8.60529 7.07528 8.37907 7.22088 8.12153C7.32029 7.94776 7.41657 7.76224 7.49407 7.57594C7.50973 7.54228 7.52224 7.50783 7.53477 7.47417C7.5559 7.41468 7.57783 7.35911 7.59348 7.30353C7.60914 7.25655 7.62165 7.20724 7.63418 7.16106C7.67098 7.00293 7.68663 6.83543 7.68663 6.66165C7.68663 6.59355 7.6835 6.52232 7.67724 6.45422C7.6741 6.37986 7.66471 6.30548 7.65531 6.23112C7.64905 6.16537 7.63732 6.1004 7.62479 6.0323C7.60914 5.93289 7.58721 5.83427 7.56216 5.73484L7.55355 5.69728C7.53477 5.62916 7.51912 5.5642 7.4972 5.49611C7.43535 5.2824 7.36413 5.07418 7.28898 4.87928C7.26158 4.80178 7.23027 4.72742 7.19895 4.65306C7.15278 4.54112 7.1058 4.43936 7.06276 4.34307C7.04085 4.29923 7.02206 4.25931 7.00327 4.21861C6.98213 4.17242 6.96022 4.12624 6.93829 4.08241C6.92264 4.04875 6.90463 4.01744 6.89211 3.98612L6.75826 3.73877C6.73947 3.70511 6.77078 3.66518 6.80757 3.67536L7.64515 3.90236H7.6475C7.64905 3.90236 7.64984 3.90315 7.65062 3.90315L7.76099 3.93367L7.88233 3.96813L7.92694 3.98064V3.4828C7.92694 3.24248 8.1195 3.04758 8.35747 3.04758C8.47645 3.04758 8.58447 3.09611 8.66197 3.17516C8.73946 3.25423 8.78799 3.36225 8.78799 3.4828V4.22175L8.87724 4.24678C8.88428 4.24914 8.89132 4.25227 8.89758 4.25696C8.91951 4.2734 8.95081 4.29766 8.99073 4.32742C9.02204 4.35246 9.0557 4.38299 9.09641 4.41431C9.17703 4.47927 9.27332 4.56303 9.37899 4.65932C9.40717 4.68358 9.43456 4.70863 9.45962 4.73368C9.59583 4.86049 9.74846 5.00921 9.89406 5.1736C9.93476 5.21978 9.97469 5.26675 10.0154 5.31606C10.0561 5.36616 10.0991 5.41547 10.1367 5.46479C10.186 5.53054 10.2393 5.59864 10.2854 5.66988C10.3074 5.70354 10.3324 5.73798 10.3535 5.77164C10.413 5.86165 10.4655 5.95481 10.5156 6.04796C10.5367 6.09101 10.5586 6.13797 10.5774 6.18416C10.633 6.30862 10.6768 6.43543 10.705 6.56224C10.7136 6.58964 10.7199 6.61938 10.723 6.646V6.65227C10.7324 6.68983 10.7355 6.72975 10.7387 6.77045C10.7512 6.9004 10.7449 7.03033 10.7168 7.16106C10.705 7.21665 10.6894 7.26908 10.6706 7.32467C10.6518 7.37789 10.633 7.43347 10.6087 7.48591C10.5618 7.59471 10.5062 7.70353 10.4404 7.80529C10.4193 7.84286 10.3942 7.88279 10.3692 7.92036C10.3418 7.96027 10.3136 7.99785 10.2886 8.03465C10.2541 8.08161 10.2173 8.13092 10.1798 8.17476C10.1461 8.22094 10.1117 8.26713 10.0741 8.30783C10.0216 8.36967 9.97155 8.42838 9.9191 8.48474C9.8878 8.52153 9.85414 8.5591 9.81969 8.59276C9.78604 8.63033 9.75159 8.66399 9.72027 8.6953C9.66784 8.74775 9.624 8.78845 9.5872 8.82211L9.50111 8.90118C9.48858 8.91214 9.47214 8.9184 9.45492 8.9184H8.78799V9.77397H9.62712C9.81499 9.77397 9.99347 9.70743 10.1375 9.58531C10.1868 9.54227 10.4021 9.35597 10.6565 9.07495C10.6651 9.06555 10.6761 9.05851 10.6886 9.05539L13.0064 8.38533C13.0494 8.37281 13.0933 8.40567 13.0933 8.45108Z" fill="#1C1C1C"/>
</g>
<g clip-path="url(#clip1_1_909)">
<path d="M9.80152 11.1041L9.78721 11.1074L9.77313 11.1116C9.14814 11.2968 8.57338 11.6061 8.38128 12.1806C8.18903 12.7556 8.46317 13.3441 8.8616 13.8665C8.97073 14.0223 9.03698 14.1207 9.07881 14.1975C9.09909 14.2348 9.1078 14.2569 9.11135 14.2676C9.10867 14.2758 9.10313 14.29 9.09215 14.3119C9.05933 14.3773 8.99882 14.4702 8.8871 14.6216C8.48621 15.1508 8.19257 15.7471 8.36786 16.3326C8.54628 16.9284 9.12906 17.253 9.78355 17.4513C9.96776 17.5098 10.0761 17.5505 10.1456 17.5857C10.1722 17.5992 10.1871 17.6089 10.1946 17.6144C10.198 17.6247 10.2039 17.6469 10.2094 17.6878C10.2209 17.7736 10.2252 17.8925 10.2276 18.0846C10.2113 18.7387 10.3322 19.3772 10.8231 19.7321C11.3156 20.0881 11.9639 20.0017 12.5822 19.7823L12.5896 19.7797L12.5969 19.7769C12.7342 19.7233 12.879 19.6924 13.0257 19.6853C13.0713 19.7249 13.1235 19.779 13.1848 19.8519C13.2518 19.9316 13.3038 20.0004 13.3624 20.0779C13.4085 20.1388 13.4586 20.2051 13.5234 20.2865C13.7585 20.5817 14.1473 21.0233 14.7744 21.0252L14.7749 21.0252C15.4097 21.0265 15.8083 20.5568 16.0393 20.264C16.0976 20.1901 16.1457 20.1266 16.1897 20.0684C16.2541 19.9833 16.3099 19.9096 16.3764 19.8317C16.44 19.7572 16.489 19.7098 16.5262 19.6802C16.5835 19.6833 16.669 19.6967 16.7948 19.7289C16.8777 19.7501 16.9637 19.7753 17.061 19.8038L17.085 19.8109C17.1885 19.8412 17.3037 19.8746 17.4203 19.903C17.6461 19.958 17.9299 20.0081 18.2162 19.9618C18.5271 19.9115 18.8148 19.7515 19.0271 19.4456C19.277 19.097 19.3108 18.6505 19.3246 18.346C19.3281 18.2689 19.3303 18.1917 19.3324 18.1198L19.3329 18.1016C19.3352 18.0229 19.3374 17.9507 19.341 17.8816C19.3467 17.772 19.3554 17.686 19.368 17.6182C19.38 17.6122 19.3959 17.6048 19.4169 17.5956C19.4389 17.586 19.4632 17.5758 19.4926 17.5637C19.4972 17.5618 19.5019 17.5598 19.5067 17.5578C19.5298 17.5482 19.5556 17.5376 19.5821 17.5264C19.6347 17.5059 19.7027 17.4816 19.7792 17.4543C19.9689 17.3867 20.2111 17.3004 20.401 17.2058C20.6908 17.0614 21.0408 16.8204 21.1836 16.3827C21.2918 16.0891 21.2588 15.8061 21.1824 15.5715C21.1074 15.3409 20.9814 15.1288 20.8696 14.9559C20.8126 14.8677 20.764 14.7962 20.7194 14.7304C20.6618 14.6455 20.6107 14.5702 20.5562 14.481C20.5044 14.3961 20.4725 14.3329 20.4535 14.2867C20.4614 14.271 20.4713 14.2524 20.4838 14.2308C20.5368 14.1384 20.6093 14.0331 20.6917 13.9151C21.0913 13.3888 21.3723 12.7965 21.1886 12.2157C21.004 11.6318 20.43 11.3107 19.79 11.1149C19.6564 11.0692 19.5337 11.0256 19.4351 10.9811C19.4102 10.9699 19.3897 10.9598 19.373 10.951C19.3613 10.903 19.35 10.8333 19.3422 10.7337C19.3339 10.6295 19.3312 10.5377 19.3281 10.4339C19.3258 10.355 19.3233 10.2692 19.3179 10.1659C19.3074 9.9604 19.2855 9.71479 19.2119 9.48397C19.1378 9.25146 19.0018 9.00466 18.7478 8.8293C18.5029 8.63928 18.2259 8.58417 17.9806 8.58469C17.7377 8.58521 17.4968 8.64022 17.2982 8.69356C17.198 8.72046 17.1156 8.74454 17.0399 8.76666C16.9405 8.79572 16.8527 8.8214 16.7512 8.84566C16.6575 8.86807 16.5894 8.87878 16.5408 8.88269C16.5031 8.84986 16.4536 8.79974 16.3902 8.72489C16.3226 8.64508 16.2685 8.57479 16.2077 8.49576C16.1585 8.43184 16.105 8.3622 16.0362 8.27718C15.9065 8.11664 15.7437 7.93058 15.5471 7.78744C15.3489 7.64313 15.0926 7.52544 14.7834 7.53528C14.4742 7.52725 14.219 7.64803 14.023 7.79289C13.8284 7.93679 13.6666 8.12321 13.5377 8.28307C13.4758 8.35976 13.4247 8.42585 13.3776 8.48673C13.3116 8.57198 13.2536 8.647 13.1851 8.72659C13.1193 8.80307 13.069 8.85215 13.0319 8.88288C12.9842 8.87981 12.9152 8.86964 12.8177 8.84635C12.7156 8.82197 12.6243 8.79501 12.5203 8.76431C12.447 8.74265 12.3674 8.71913 12.2733 8.69336C12.0754 8.63916 11.835 8.58254 11.5926 8.57991C11.3482 8.57726 11.0704 8.62929 10.8241 8.81742C10.5683 8.99066 10.4297 9.23601 10.3535 9.46894C10.2781 9.69994 10.255 9.94585 10.2438 10.152C10.2378 10.2622 10.2352 10.3503 10.2328 10.4312C10.2298 10.53 10.2271 10.618 10.2191 10.7225C10.2119 10.8167 10.2018 10.885 10.1909 10.9338C10.0729 11.0137 9.94096 11.0715 9.80152 11.1041ZM9.11368 14.2589C9.11373 14.2588 9.11364 14.2595 9.1133 14.2609C9.11347 14.2596 9.11364 14.2589 9.11368 14.2589ZM10.201 17.6197C10.201 17.6197 10.2004 17.6193 10.1996 17.6183C10.2006 17.6192 10.2011 17.6197 10.201 17.6197ZM10.1923 17.6081C10.1919 17.6075 10.1918 17.6071 10.1918 17.6071L10.1923 17.6081ZM20.4301 14.3406C20.4301 14.3406 20.4303 14.3398 20.4309 14.338C20.4305 14.3397 20.4302 14.3406 20.4301 14.3406ZM19.3238 10.9214C19.3239 10.9214 19.3246 10.9219 19.3259 10.9231C19.3245 10.922 19.3238 10.9214 19.3238 10.9214Z" fill="#407FDB" stroke="#1C1C1C"/>
<path d="M12.5378 14.5796L13.978 16.0198L17.3324 12.6653" stroke="white" stroke-width="1.06651" stroke-linecap="square"/>
</g>
<defs>
<clipPath id="clip0_1_909">
<rect width="15.2381" height="15.2381" fill="white" transform="translate(0.5)"/>
</clipPath>
<clipPath id="clip1_1_909">
<rect width="14.44" height="14.44" fill="white" transform="translate(7.55997 7.05997)"/>
</clipPath>
</defs>
</svg>
